<svg width="400" height="250" viewBox="0 0 400 250" fill="none" xmlns="http://www.w3.org/2000/svg">
<rect width="400" height="250" fill="#09221C"/>
<rect x="126" y="82" width="150" height="26" rx="13" fill="#2FCA5A"/>
<path d="M144.99 98.444H139.896L138.996 101H136.314L140.994 88.436H143.892L148.554 101H145.872L144.99 98.444ZM144.306 96.518L142.434 91.154L140.562 96.518H144.306ZM161.948 101L158.978 96.05H157.862V101H155.324V88.292H160.166C161.642 88.292 162.764 88.652 163.532 89.372C164.312 90.092 164.702 91.04 164.702 92.216C164.702 93.176 164.432 93.98 163.892 94.628C163.364 95.276 162.596 95.708 161.588 95.924L164.756 101H161.948ZM157.862 94.304H159.95C161.402 94.304 162.128 93.662 162.128 92.378C162.128 91.766 161.948 91.292 161.588 90.956C161.24 90.608 160.694 90.434 159.95 90.434H157.862V94.304ZM178.908 94.448C179.676 94.604 180.288 94.97 180.744 95.546C181.212 96.11 181.446 96.776 181.446 97.544C181.446 98.612 181.086 99.458 180.366 100.082C179.658 100.694 178.626 101 177.27 101H171.816V88.292H177.162C178.446 88.292 179.43 88.574 180.114 89.138C180.81 89.702 181.158 90.494 181.158 91.514C181.158 92.306 180.948 92.954 180.528 93.458C180.12 93.962 179.58 94.292 178.908 94.448ZM174.354 93.62H176.64C177.276 93.62 177.756 93.482 178.08 93.206C178.416 92.918 178.584 92.51 178.584 91.982C178.584 91.454 178.422 91.046 178.098 90.758C177.774 90.47 177.276 90.326 176.604 90.326H174.354V93.62ZM176.766 98.93C177.438 98.93 177.954 98.786 178.314 98.498C178.674 98.198 178.854 97.766 178.854 97.202C178.854 96.638 178.668 96.206 178.296 95.906C177.936 95.594 177.42 95.438 176.748 95.438H174.354V98.93H176.766ZM194.582 88.112C195.77 88.112 196.844 88.388 197.804 88.94C198.776 89.492 199.538 90.266 200.09 91.262C200.654 92.246 200.936 93.362 200.936 94.61C200.936 95.858 200.654 96.98 200.09 97.976C199.538 98.972 198.776 99.746 197.804 100.298C196.844 100.85 195.77 101.126 194.582 101.126C193.394 101.126 192.314 100.85 191.342 100.298C190.382 99.746 189.62 98.972 189.056 97.976C188.504 96.98 188.228 95.858 188.228 94.61C188.228 93.362 188.504 92.246 189.056 91.262C189.62 90.266 190.382 89.492 191.342 88.94C192.314 88.388 193.394 88.112 194.582 88.112ZM194.582 90.452C193.838 90.452 193.184 90.62 192.62 90.956C192.056 91.292 191.612 91.778 191.288 92.414C190.976 93.038 190.82 93.77 190.82 94.61C190.82 95.45 190.976 96.188 191.288 96.824C191.612 97.448 192.056 97.928 192.62 98.264C193.184 98.6 193.838 98.768 194.582 98.768C195.326 98.768 195.98 98.6 196.544 98.264C197.108 97.928 197.546 97.448 197.858 96.824C198.182 96.188 198.344 95.45 198.344 94.61C198.344 93.77 198.182 93.038 197.858 92.414C197.546 91.778 197.108 91.292 196.544 90.956C195.98 90.62 195.326 90.452 194.582 90.452ZM210.783 99.056H215.049V101H208.245V88.292H210.783V99.056ZM229.699 98.444H224.605L223.705 101H221.023L225.703 88.436H228.601L233.263 101H230.581L229.699 98.444ZM229.015 96.518L227.143 91.154L225.271 96.518H229.015ZM242.571 96.284V101H240.033V88.292H244.659C246.159 88.292 247.287 88.652 248.043 89.372C248.811 90.092 249.195 91.07 249.195 92.306C249.195 93.518 248.799 94.484 248.007 95.204C247.227 95.924 246.111 96.284 244.659 96.284H242.571ZM244.389 94.25C245.877 94.25 246.621 93.602 246.621 92.306C246.621 91.67 246.447 91.184 246.099 90.848C245.751 90.512 245.181 90.344 244.389 90.344H242.571V94.25H244.389ZM258.781 96.284V101H256.243V88.292H260.869C262.369 88.292 263.497 88.652 264.253 89.372C265.021 90.092 265.405 91.07 265.405 92.306C265.405 93.518 265.009 94.484 264.217 95.204C263.437 95.924 262.321 96.284 260.869 96.284H258.781ZM260.599 94.25C262.087 94.25 262.831 93.602 262.831 92.306C262.831 91.67 262.657 91.184 262.309 90.848C261.961 90.512 261.391 90.344 260.599 90.344H258.781V94.25H260.599Z" fill="#09221C"/>
<path d="M154.776 130.29L148.721 155H142.631L138.011 137.08L133.356 155H127.301L121.246 130.29H126.601L130.381 149.435L135.281 130.29H140.706L145.641 149.435L149.421 130.29H154.776ZM176.388 144.57C176.388 145.06 176.329 145.62 176.213 146.25H162.003C162.073 147.977 162.539 149.248 163.403 150.065C164.266 150.882 165.339 151.29 166.623 151.29C167.766 151.29 168.711 151.01 169.458 150.45C170.228 149.89 170.718 149.132 170.928 148.175H176.143C175.886 149.528 175.338 150.742 174.498 151.815C173.658 152.888 172.573 153.728 171.243 154.335C169.936 154.942 168.478 155.245 166.868 155.245C164.978 155.245 163.298 154.848 161.828 154.055C160.358 153.238 159.214 152.083 158.398 150.59C157.581 149.097 157.173 147.335 157.173 145.305C157.173 143.275 157.581 141.513 158.398 140.02C159.214 138.503 160.358 137.348 161.828 136.555C163.298 135.762 164.978 135.365 166.868 135.365C168.781 135.365 170.449 135.762 171.873 136.555C173.319 137.348 174.428 138.445 175.198 139.845C175.991 141.222 176.388 142.797 176.388 144.57ZM171.418 144.08C171.488 142.493 171.068 141.292 170.158 140.475C169.271 139.658 168.174 139.25 166.868 139.25C165.538 139.25 164.418 139.658 163.508 140.475C162.598 141.292 162.096 142.493 162.003 144.08H171.418ZM191.476 135.365C193.109 135.365 194.579 135.762 195.886 136.555C197.193 137.348 198.208 138.503 198.931 140.02C199.678 141.513 200.051 143.275 200.051 145.305C200.051 147.335 199.678 149.108 198.931 150.625C198.208 152.118 197.193 153.262 195.886 154.055C194.579 154.848 193.109 155.245 191.476 155.245C189.843 155.245 188.443 154.86 187.276 154.09C186.133 153.297 185.316 152.247 184.826 150.94V155H179.891V129.1H184.826V139.635C185.316 138.328 186.133 137.29 187.276 136.52C188.443 135.75 189.843 135.365 191.476 135.365ZM189.936 139.67C188.443 139.67 187.206 140.183 186.226 141.21C185.269 142.213 184.791 143.578 184.791 145.305C184.791 147.008 185.269 148.373 186.226 149.4C187.206 150.403 188.443 150.905 189.936 150.905C191.476 150.905 192.713 150.415 193.646 149.435C194.579 148.432 195.046 147.055 195.046 145.305C195.046 143.555 194.579 142.178 193.646 141.175C192.713 140.172 191.476 139.67 189.936 139.67ZM226.215 150.03H216.31L214.56 155H209.345L218.445 130.57H224.08L233.145 155H227.93L226.215 150.03ZM224.885 146.285L221.245 135.855L217.605 146.285H224.885ZM247.394 135.365C249.027 135.365 250.497 135.762 251.804 136.555C253.111 137.348 254.126 138.503 254.849 140.02C255.596 141.513 255.969 143.275 255.969 145.305C255.969 147.335 255.596 149.108 254.849 150.625C254.126 152.118 253.111 153.262 251.804 154.055C250.497 154.848 249.027 155.245 247.394 155.245C245.761 155.245 244.361 154.86 243.194 154.09C242.051 153.297 241.234 152.247 240.744 150.94V164.24H235.809V135.61H240.744V139.635C241.234 138.328 242.051 137.29 243.194 136.52C244.361 135.75 245.761 135.365 247.394 135.365ZM245.854 139.67C244.361 139.67 243.124 140.183 242.144 141.21C241.187 142.213 240.709 143.578 240.709 145.305C240.709 147.008 241.187 148.373 242.144 149.4C243.124 150.403 244.361 150.905 245.854 150.905C247.394 150.905 248.631 150.415 249.564 149.435C250.497 148.432 250.964 147.055 250.964 145.305C250.964 143.555 250.497 142.178 249.564 141.175C248.631 140.172 247.394 139.67 245.854 139.67ZM271.046 135.365C272.68 135.365 274.15 135.762 275.456 136.555C276.763 137.348 277.778 138.503 278.501 140.02C279.248 141.513 279.621 143.275 279.621 145.305C279.621 147.335 279.248 149.108 278.501 150.625C277.778 152.118 276.763 153.262 275.456 154.055C274.15 154.848 272.68 155.245 271.046 155.245C269.413 155.245 268.013 154.86 266.846 154.09C265.703 153.297 264.886 152.247 264.396 150.94V164.24H259.461V135.61H264.396V139.635C264.886 138.328 265.703 137.29 266.846 136.52C268.013 135.75 269.413 135.365 271.046 135.365ZM269.506 139.67C268.013 139.67 266.776 140.183 265.796 141.21C264.84 142.213 264.361 143.578 264.361 145.305C264.361 147.008 264.84 148.373 265.796 149.4C266.776 150.403 268.013 150.905 269.506 150.905C271.046 150.905 272.283 150.415 273.216 149.435C274.15 148.432 274.616 147.055 274.616 145.305C274.616 143.555 274.15 142.178 273.216 141.175C272.283 140.172 271.046 139.67 269.506 139.67Z" fill="white"/>
</svg>
