<svg width="500" height="250" viewBox="0 0 500 250" fill="none" xmlns="http://www.w3.org/2000/svg">
<rect width="500" height="250" fill="black"/>
<path d="M108.396 113.647L111.884 111.549C112.423 111.224 113.109 111.614 113.109 112.244V127.032C113.109 127.662 113.793 128.052 114.332 127.727L115.607 126.963C115.852 126.816 116.002 126.553 116.002 126.268V109.571C116.002 109.286 116.153 109.02 116.398 108.873L119.886 106.794C120.425 106.473 121.108 106.863 121.108 107.492V122.218C121.108 122.841 121.779 123.232 122.318 122.923L123.357 122.327C123.609 122.182 123.766 121.913 123.766 121.622V104.938C123.766 104.653 123.916 104.387 124.162 104.24L127.65 102.161C128.189 101.839 128.872 102.23 128.872 102.859V125.566C128.872 125.852 128.722 126.117 128.48 126.261L109.226 137.823C108.686 138.148 108 137.758 108 137.128V114.346C108 114.06 108.15 113.795 108.396 113.647Z" fill="#7373F9"/>
<path d="M111.04 140.968L129.546 148.29C129.833 148.405 130.157 148.405 130.445 148.29L148.95 140.968C149.555 140.728 149.623 139.896 149.064 139.561L130.5 128.416C130.19 128.229 129.804 128.229 129.493 128.416L110.926 139.561C110.367 139.896 110.435 140.728 111.04 140.968Z" fill="#2B23A3"/>
<path d="M150.941 123.156L151.503 122.95C151.801 122.841 152 122.556 152 122.235V114.313C152 114.044 151.859 113.798 151.631 113.66L132.272 102.108C131.769 101.807 131.128 102.171 131.128 102.761L131.131 125.593C131.131 125.858 131.272 126.107 131.5 126.245L150.853 137.872C151.356 138.174 151.997 137.81 151.997 137.22V126.222C151.997 126.038 151.931 125.861 151.81 125.72L150.63 124.373C150.281 123.969 150.441 123.34 150.941 123.156ZM145.488 128.672L136.659 123.461V120.612L145.488 125.897V128.672ZM145.488 119.274L136.659 114.064V111.214L145.488 116.5V119.274Z" fill="#5B3DEA"/>
<path d="M201.968 116.184L195.601 135.431L191.806 135.434L187.041 121.197L182.212 135.441L178.391 135.444L172 116.205L175.709 116.201L180.502 130.822L185.467 116.195L188.766 116.191L193.639 130.893L198.55 116.184H201.968Z" fill="white"/>
<path d="M214.026 122.127C215.173 123.162 215.747 124.723 215.747 126.814L215.753 135.417L212.509 135.421V133.636C212.088 134.277 211.487 134.769 210.71 135.108C209.933 135.448 208.993 135.618 207.893 135.618C206.794 135.618 205.83 135.431 205.005 135.058C204.18 134.684 203.542 134.162 203.094 133.49C202.643 132.821 202.419 132.064 202.419 131.223C202.419 129.902 202.908 128.843 203.888 128.046C204.869 127.248 206.41 126.848 208.521 126.848L212.315 126.844V126.624C212.315 125.599 212.007 124.808 211.392 124.262C210.778 123.712 209.865 123.437 208.657 123.437C207.832 123.437 207.021 123.566 206.223 123.824C205.426 124.082 204.754 124.438 204.204 124.896L202.857 122.395C203.627 121.808 204.55 121.36 205.633 121.044C206.712 120.732 207.859 120.576 209.067 120.576C211.226 120.576 212.879 121.095 214.026 122.127ZM210.9 132.522C211.569 132.129 212.04 131.565 212.315 130.832V129.129L208.769 129.132C206.79 129.132 205.799 129.784 205.803 131.087C205.803 131.711 206.05 132.203 206.546 132.57C207.041 132.936 207.727 133.12 208.609 133.12C209.465 133.113 210.232 132.916 210.9 132.522Z" fill="white"/>
<path d="M228.636 120.566L228.64 123.838C228.348 123.783 228.08 123.756 227.842 123.756C226.505 123.756 225.46 124.146 224.71 124.927C223.96 125.708 223.583 126.831 223.583 128.297L223.586 135.417L220.152 135.421L220.142 120.742L223.413 120.739V122.884C224.404 121.336 226.145 120.566 228.636 120.566Z" fill="white"/>
<path d="M245.164 129.159L233.646 129.166C233.849 130.248 234.375 131.104 235.227 131.735C236.079 132.366 237.138 132.682 238.404 132.682C240.016 132.682 241.346 132.149 242.388 131.083L244.231 133.198C243.573 133.985 242.738 134.582 241.73 134.986C240.722 135.39 239.585 135.594 238.322 135.594C236.71 135.594 235.288 135.275 234.06 134.633C232.831 133.992 231.881 133.099 231.212 131.956C230.544 130.812 230.208 129.515 230.208 128.066C230.208 126.637 230.53 125.351 231.182 124.204C231.83 123.057 232.733 122.164 233.887 121.523C235.041 120.881 236.34 120.559 237.79 120.559C239.218 120.559 240.498 120.875 241.625 121.506C242.751 122.137 243.634 123.026 244.265 124.17C244.896 125.314 245.215 126.641 245.215 128.141C245.219 128.378 245.198 128.718 245.164 129.159ZM235.003 124.286C234.243 124.937 233.781 125.803 233.615 126.885L241.944 126.878C241.798 125.816 241.346 124.954 240.596 124.296C239.843 123.637 238.91 123.308 237.793 123.308C236.693 123.308 235.763 123.634 235.003 124.286Z" fill="white"/>
<path d="M261.295 122.164C262.415 123.247 262.975 124.849 262.975 126.973L262.979 135.387L259.541 135.39L259.537 127.418C259.537 126.135 259.235 125.168 258.628 124.52C258.024 123.868 257.162 123.546 256.045 123.546C254.779 123.546 253.781 123.929 253.048 124.689C252.315 125.45 251.949 126.546 251.952 127.975L251.955 135.397L248.521 135.4L248.507 115.003L251.942 115L251.949 122.422C252.515 121.818 253.218 121.353 254.049 121.031C254.884 120.708 255.814 120.549 256.839 120.549C258.692 120.546 260.175 121.085 261.295 122.164Z" fill="white"/>
<path d="M270.072 134.613C268.88 133.972 267.95 133.079 267.282 131.935C266.613 130.791 266.277 129.495 266.277 128.046C266.277 126.6 266.61 125.307 267.279 124.17C267.947 123.033 268.877 122.144 270.065 121.503C271.256 120.861 272.593 120.539 274.08 120.539C275.583 120.539 276.931 120.858 278.122 121.499C279.313 122.141 280.243 123.026 280.915 124.163C281.584 125.3 281.92 126.59 281.92 128.039C281.92 129.488 281.587 130.785 280.918 131.928C280.25 133.076 279.32 133.968 278.129 134.61C276.937 135.251 275.59 135.573 274.09 135.573C272.6 135.573 271.263 135.254 270.072 134.613ZM277.216 131.365C278.04 130.52 278.451 129.414 278.451 128.039C278.451 126.665 278.037 125.555 277.212 124.713C276.388 123.871 275.342 123.451 274.076 123.451C272.81 123.451 271.772 123.875 270.957 124.717C270.143 125.562 269.736 126.668 269.736 128.042C269.736 129.417 270.146 130.527 270.961 131.368C271.775 132.21 272.817 132.631 274.083 132.631C275.349 132.631 276.391 132.207 277.216 131.365Z" fill="white"/>
<path d="M299.422 120.685L299.432 135.363L296.16 135.366V133.496C295.61 134.155 294.925 134.664 294.1 135.024C293.275 135.38 292.386 135.56 291.433 135.56C289.471 135.56 287.927 135.017 286.8 133.927C285.673 132.838 285.106 131.223 285.106 129.078L285.1 120.695L288.534 120.691L288.541 128.609C288.541 129.93 288.84 130.914 289.437 131.562C290.034 132.214 290.879 132.536 291.979 132.536C293.207 132.536 294.182 132.156 294.904 131.392C295.627 130.632 295.99 129.536 295.987 128.107L295.98 120.685H299.422Z" fill="white"/>
<path d="M304.984 135.085C303.847 134.776 302.941 134.382 302.262 133.904L303.579 131.29C304.241 131.728 305.032 132.081 305.958 132.346C306.885 132.611 307.794 132.743 308.694 132.743C310.747 132.743 311.772 132.2 311.772 131.117C311.772 130.605 311.51 130.248 310.988 130.045C310.465 129.845 309.627 129.651 308.473 129.468C307.265 129.285 306.277 129.074 305.517 128.837C304.757 128.599 304.095 128.182 303.535 127.588C302.975 126.994 302.697 126.162 302.697 125.1C302.697 123.709 303.277 122.592 304.441 121.757C305.605 120.922 307.176 120.505 309.155 120.505C310.163 120.505 311.171 120.617 312.179 120.848C313.187 121.075 314.012 121.384 314.653 121.767L313.336 124.381C312.091 123.647 310.686 123.284 309.131 123.284C308.123 123.284 307.356 123.437 306.837 123.739C306.314 124.041 306.053 124.442 306.053 124.934C306.053 125.484 306.331 125.874 306.891 126.101C307.451 126.329 308.317 126.546 309.491 126.746C310.665 126.929 311.626 127.14 312.379 127.377C313.129 127.615 313.777 128.019 314.317 128.585C314.857 129.152 315.128 129.96 315.128 131.005C315.128 132.38 314.534 133.479 313.343 134.304C312.152 135.129 310.53 135.543 308.48 135.543C307.285 135.55 306.121 135.394 304.984 135.085Z" fill="white"/>
<path d="M331.836 129.101L320.317 129.108C320.521 130.191 321.047 131.046 321.899 131.677C322.751 132.309 323.81 132.624 325.076 132.624C326.688 132.624 328.018 132.091 329.06 131.026L330.903 133.14C330.244 133.927 329.409 134.525 328.401 134.929C327.394 135.332 326.257 135.536 324.994 135.536C323.382 135.536 321.96 135.217 320.731 134.576C319.503 133.934 318.553 133.042 317.884 131.898C317.215 130.754 316.879 129.458 316.879 128.009C316.879 126.58 317.202 125.29 317.853 124.146C318.502 122.999 319.404 122.107 320.558 121.465C321.712 120.824 323.012 120.501 324.461 120.501C325.89 120.501 327.17 120.814 328.296 121.448C329.423 122.079 330.305 122.969 330.937 124.112C331.568 125.256 331.887 126.58 331.887 128.083C331.89 128.321 331.873 128.66 331.836 129.101ZM321.675 124.228C320.915 124.879 320.453 125.745 320.287 126.827L328.615 126.824C328.469 125.762 328.018 124.9 327.268 124.241C326.514 123.583 325.581 123.254 324.465 123.254C323.365 123.25 322.435 123.576 321.675 124.228Z" fill="white"/>
<path d="M359.482 126.561C360.124 127.376 360.446 128.407 360.446 129.653C360.446 131.323 359.822 132.605 358.566 133.501C357.31 134.401 355.484 134.852 353.081 134.852L343.901 134.859L343.887 115.616L352.518 115.609C354.717 115.609 356.417 116.047 357.619 116.926C358.82 117.805 359.421 119.023 359.421 120.581C359.421 121.589 359.187 122.461 358.722 123.194C358.257 123.927 357.629 124.487 356.842 124.874C357.958 125.183 358.837 125.747 359.482 126.561ZM346.636 117.842L346.64 123.999L352.277 123.995C353.689 123.995 354.775 123.734 355.535 123.211C356.295 122.689 356.675 121.922 356.675 120.914C356.675 119.906 356.292 119.142 355.532 118.619C354.771 118.097 353.685 117.835 352.274 117.839L346.636 117.842ZM356.489 131.855C357.276 131.343 357.67 130.535 357.67 129.436C357.67 127.291 356.102 126.222 352.966 126.222L346.643 126.225L346.647 132.629L352.969 132.626C354.527 132.626 355.701 132.368 356.489 131.855Z" fill="white"/>
<path d="M366.66 134.048C365.506 133.406 364.603 132.524 363.952 131.397C363.3 130.27 362.974 128.991 362.974 127.562C362.974 126.133 363.297 124.854 363.948 123.727C364.597 122.6 365.499 121.721 366.653 121.087C367.807 120.455 369.107 120.136 370.556 120.136C372.005 120.136 373.302 120.452 374.449 121.083C375.593 121.715 376.492 122.594 377.144 123.72C377.795 124.847 378.121 126.127 378.121 127.555C378.121 128.984 377.799 130.264 377.147 131.39C376.495 132.517 375.599 133.403 374.456 134.044C373.312 134.686 372.016 135.008 370.566 135.008C369.117 135.008 367.814 134.689 366.66 134.048ZM373.078 132.052C373.821 131.621 374.401 131.017 374.822 130.237C375.243 129.456 375.454 128.563 375.454 127.555C375.454 126.547 375.24 125.655 374.819 124.874C374.398 124.097 373.814 123.496 373.071 123.076C372.328 122.655 371.49 122.444 370.556 122.444C369.623 122.444 368.785 122.655 368.041 123.079C367.298 123.5 366.714 124.1 366.283 124.881C365.852 125.662 365.639 126.554 365.639 127.562C365.639 128.57 365.856 129.463 366.287 130.243C366.718 131.021 367.305 131.625 368.048 132.056C368.791 132.487 369.63 132.7 370.563 132.7C371.496 132.697 372.335 132.483 373.078 132.052Z" fill="white"/>
<path d="M390.576 134.828L386.368 129.252L382.112 134.835L379.17 134.839L384.909 127.386L379.434 120.269L382.377 120.265L386.392 125.512L390.376 120.259H393.264L387.77 127.382L393.573 134.828H390.576Z" fill="white"/>
</svg>
