<svg width="960" height="480" viewBox="0 0 960 480" fill="none" xmlns="http://www.w3.org/2000/svg">
<rect width="960" height="480" fill="black"/>
<g clip-path="url(#clip0_16_6)">
<path d="M244.308 207.974V291.318H256.424V212.985L270.204 199.226H302.625V187.129H265.178L244.308 207.974Z" fill="white"/>
<path d="M267.408 219.506V291.318H279.524V222.298H302.625V210.193H276.735L267.408 219.506Z" fill="white"/>
<path d="M175 198.661V210.758H207.428L221.2 224.517V291.311H233.324V219.506L212.446 198.661H175Z" fill="white"/>
<path d="M175 221.725V233.83H198.043V291.311H210.224V231.038L200.896 221.725H175Z" fill="white"/>
<path d="M296.566 233.264C293.218 233.264 290.508 235.97 290.508 239.313C290.508 242.656 293.218 245.362 296.566 245.362C299.914 245.362 302.625 242.656 302.625 239.313C302.625 235.97 299.914 233.264 296.566 233.264Z" fill="white"/>
<path d="M483.741 216.707C468.993 216.707 462.254 225.905 461.128 229.563H455.866V187H443.756V291.361H455.844V252.455C455.844 245.49 458.762 239.664 463.25 235.125C467.738 230.587 473.703 228.289 480.687 228.289C487.275 228.289 492.674 230.372 496.366 234.481C500.03 238.561 501.93 244.352 501.93 251.704V291.368H514.046V250.802C514.046 248.468 513.91 246.256 513.681 244.188C511.96 228.812 499.234 216.714 483.741 216.714V216.707Z" fill="white"/>
<path d="M638.115 230.902L632.788 230.916V216.893H620.678V291.332H632.788V255.455C632.788 247.387 635.469 241.317 639.412 236.557C643.384 231.761 650.633 229.012 657.408 229.012H674.959L674.98 216.95L659.179 216.993C652.404 216.95 641.183 218.325 638.122 230.895L638.115 230.902Z" fill="white"/>
<path d="M701.83 199.348H756.849V187H689.707V291.361H701.83V248.712H756.856V236.65H701.83V199.348Z" fill="white"/>
<path d="M783.842 216.893H771.733V291.361H783.842V216.893Z" fill="white"/>
<path d="M777.942 199.098C781.29 199.098 784 196.392 784 193.049C784 189.706 781.29 187 777.942 187C774.594 187 771.884 189.706 771.884 193.049C771.884 196.392 774.594 199.098 777.942 199.098Z" fill="white"/>
<path d="M344.874 199.334H380.808V291.361H392.925V199.334H428.944V187.072H344.874V199.334Z" fill="white"/>
<path d="M567.359 216.7C543.269 216.7 528.772 232.641 528.772 254.846C528.772 277.051 543.083 292.993 567.359 292.993C591.635 292.993 605.945 277.051 605.945 254.846C605.945 232.641 591.635 216.7 567.359 216.7ZM567.359 280.924C550.812 280.924 541.061 270.058 541.061 254.925C541.061 239.792 550.941 228.926 567.359 228.926C583.777 228.926 593.657 239.792 593.657 254.925C593.657 270.058 583.777 280.924 567.359 280.924Z" fill="white"/>
</g>
<defs>
<clipPath id="clip0_16_6">
<rect width="609" height="106" fill="white" transform="translate(175 187)"/>
</clipPath>
</defs>
</svg>
