<svg width="144" height="24" viewBox="0 0 144 24" fill="none" xmlns="http://www.w3.org/2000/svg">
<path d="M1.19777 6.32354L2.94175 5.27426C3.21144 5.11195 3.55468 5.30705 3.55468 5.62183V13.016C3.55468 13.3308 3.89628 13.5259 4.16597 13.3636L4.80342 12.9815C4.926 12.9078 5.00119 12.7766 5.00119 12.634V4.28564C5.00119 4.14301 5.07637 4.01021 5.19896 3.93643L6.94294 2.89699C7.21263 2.73632 7.55423 2.93142 7.55423 3.2462V10.6092C7.55423 10.9207 7.8893 11.1158 8.15899 10.9617L8.67875 10.6633C8.8046 10.5912 8.88306 10.4567 8.88306 10.3108V1.96903C8.88306 1.82639 8.95825 1.69359 9.08083 1.61982L10.8248 0.580373C11.0945 0.419702 11.4361 0.614803 11.4361 0.929587V12.2831C11.4361 12.4258 11.3609 12.5586 11.24 12.6307L1.61293 18.4116C1.34324 18.5739 1 18.3788 1 18.064V6.67275C1 6.53012 1.07519 6.39732 1.19777 6.32354Z" fill="#7373F9"/>
<path d="M2.52006 19.9839L11.7728 23.6449C11.9166 23.7023 12.0785 23.7023 12.2223 23.6449L21.475 19.9839C21.7774 19.8642 21.8117 19.4478 21.5322 19.2805L12.2501 13.7079C12.0948 13.6144 11.9019 13.6144 11.7467 13.7079L2.46286 19.2805C2.18336 19.4478 2.21769 19.8642 2.52006 19.9839Z" fill="#2B23A3"/>
<path d="M22.4704 11.0781L22.7516 10.9748C22.9003 10.9207 23 10.7781 23 10.6174V6.65638C23 6.52194 22.9297 6.39898 22.8153 6.33012L13.136 0.554164C12.8843 0.40333 12.5639 0.585314 12.5639 0.880424L12.5655 12.2963C12.5655 12.4291 12.6358 12.5537 12.7502 12.6225L22.4263 18.4362C22.678 18.587 22.9984 18.405 22.9984 18.1099V12.611C22.9984 12.5192 22.9657 12.4307 22.9052 12.3602L22.3152 11.6864C22.1403 11.4847 22.2204 11.1699 22.4704 11.0781ZM19.7441 13.8358L15.3294 11.2306V9.80586L19.7441 12.4487V13.8358ZM19.7441 9.13694L15.3294 6.53178V5.10705L19.7441 7.74993V9.13694Z" fill="#5B3DEA"/>
<path d="M47.9838 7.59222L44.8004 17.2154L42.9032 17.2171L40.5207 10.0986L38.106 17.2205L36.1953 17.2222L33 7.60241L34.8547 7.60071L37.2508 14.911L39.7334 7.59731L41.3828 7.59562L43.8195 14.9467L46.275 7.59222H47.9838Z" fill="black"/>
<path d="M54.0129 10.5635C54.5865 11.0811 54.8733 11.8617 54.8733 12.907L54.8767 17.2086L53.2544 17.2103V16.3178C53.044 16.6385 52.7436 16.8845 52.355 17.0542C51.9665 17.2239 51.4964 17.3088 50.9466 17.3088C50.3968 17.3088 49.9149 17.2154 49.5025 17.0288C49.0902 16.8421 48.7712 16.5808 48.5472 16.2448C48.3215 15.9105 48.2095 15.5321 48.2095 15.1113C48.2095 14.4512 48.4538 13.9217 48.9442 13.5229C49.4347 13.1242 50.2051 12.9239 51.2605 12.9239L53.1577 12.9222V12.8119C53.1577 12.2995 53.0033 11.9041 52.6961 11.6309C52.389 11.356 51.9325 11.2185 51.3284 11.2185C50.9161 11.2185 50.5105 11.283 50.1117 11.412C49.7129 11.5409 49.377 11.7191 49.1021 11.9482L48.4284 10.6976C48.8136 10.404 49.2751 10.18 49.8165 10.0222C50.3561 9.86608 50.9296 9.78802 51.5337 9.78802C52.613 9.78802 53.4394 10.0477 54.0129 10.5635ZM52.4501 15.7612C52.7844 15.5643 53.0202 15.2826 53.1577 14.9161V14.0643L51.3844 14.066C50.3951 14.066 49.8996 14.3918 49.9013 15.0434C49.9013 15.3556 50.0252 15.6017 50.2729 15.7849C50.5207 15.9682 50.8635 16.0598 51.3047 16.0598C51.7323 16.0564 52.1158 15.958 52.4501 15.7612Z" fill="black"/>
<path d="M61.3182 9.78296L61.3199 11.4188C61.1739 11.3916 61.0399 11.3781 60.9211 11.3781C60.2525 11.3781 59.7298 11.5732 59.3548 11.9635C58.9798 12.3538 58.7914 12.9155 58.7914 13.6485L58.7931 17.2087L57.0759 17.2104L57.0708 9.8712L58.7066 9.8695V10.942C59.2021 10.1682 60.0726 9.78296 61.3182 9.78296Z" fill="black"/>
<path d="M69.5822 14.0795L63.8228 14.0829C63.9246 14.6242 64.1877 15.0519 64.6136 15.3675C65.0395 15.6831 65.569 15.8409 66.2019 15.8409C67.0079 15.8409 67.6731 15.5745 68.1941 15.0417L69.1155 16.0989C68.7863 16.4926 68.3689 16.7912 67.8649 16.9931C67.3609 17.1951 66.7924 17.2969 66.1612 17.2969C65.3551 17.2969 64.6441 17.1374 64.0299 16.8167C63.4156 16.4959 62.9404 16.0497 62.6061 15.4778C62.2718 14.9059 62.1039 14.2577 62.1039 13.5331C62.1039 12.8187 62.2651 12.1756 62.5909 11.602C62.915 11.0285 63.3664 10.5822 63.9433 10.2615C64.5203 9.94075 65.1702 9.77954 65.8948 9.77954C66.6092 9.77954 67.2489 9.93735 67.8123 10.253C68.3757 10.5686 68.8169 11.0132 69.1325 11.5851C69.4481 12.1569 69.6076 12.8204 69.6076 13.5705C69.6093 13.6892 69.5991 13.8589 69.5822 14.0795ZM64.5016 11.6428C64.1215 11.9686 63.8907 12.4013 63.8076 12.9426L67.9718 12.9392C67.8988 12.4081 67.6731 11.9771 67.2981 11.6478C66.9214 11.3186 66.4548 11.154 65.8965 11.154C65.3467 11.154 64.8817 11.3169 64.5016 11.6428Z" fill="black"/>
<path d="M77.6476 10.5822C78.2076 11.1235 78.4876 11.9245 78.4876 12.9867L78.4893 17.1934L76.7703 17.1951L76.7686 13.209C76.7686 12.5676 76.6176 12.084 76.3138 11.7599C76.0118 11.434 75.5808 11.2728 75.0225 11.2728C74.3895 11.2728 73.8906 11.4646 73.5241 11.8447C73.1576 12.2248 72.9743 12.7729 72.976 13.4873L72.9777 17.1985L71.2604 17.2002L71.2536 7.0017L72.9709 7L72.9743 10.7112C73.2577 10.4091 73.609 10.1766 74.0247 10.0154C74.4421 9.85422 74.9071 9.77446 75.4196 9.77446C76.3461 9.77276 77.0876 10.0426 77.6476 10.5822Z" fill="black"/>
<path d="M82.0359 16.8065C81.4402 16.4858 80.9753 16.0395 80.641 15.4676C80.3067 14.8957 80.1387 14.2475 80.1387 13.5229C80.1387 12.8 80.305 12.1535 80.6393 11.5851C80.9736 11.0166 81.4385 10.572 82.0325 10.2513C82.6281 9.93055 83.2967 9.76935 84.0399 9.76935C84.7917 9.76935 85.4653 9.92886 86.0609 10.2496C86.6566 10.5703 87.1215 11.0132 87.4575 11.5817C87.7918 12.1501 87.9598 12.795 87.9598 13.5195C87.9598 14.2441 87.7935 14.8923 87.4592 15.4642C87.1249 16.0378 86.66 16.4841 86.0643 16.8048C85.4687 17.1255 84.795 17.2867 84.045 17.2867C83.3001 17.2867 82.6315 17.1272 82.0359 16.8065ZM85.6079 15.1825C86.0202 14.76 86.2255 14.2068 86.2255 13.5195C86.2255 12.8323 86.0185 12.2774 85.6062 11.8566C85.1938 11.4357 84.6712 11.2253 84.0382 11.2253C83.4053 11.2253 82.886 11.4374 82.4787 11.8583C82.0715 12.2808 81.8679 12.834 81.8679 13.5212C81.8679 14.2085 82.0732 14.7634 82.4804 15.1842C82.8877 15.6051 83.4087 15.8155 84.0416 15.8155C84.6746 15.8155 85.1955 15.6034 85.6079 15.1825Z" fill="black"/>
<path d="M96.7108 9.84235L96.7159 17.1815L95.0801 17.1832V16.2482C94.8052 16.5774 94.4624 16.832 94.05 17.0118C93.6377 17.19 93.1931 17.2799 92.7163 17.2799C91.7354 17.2799 90.9633 17.0084 90.4 16.4637C89.8366 15.919 89.5532 15.1113 89.5532 14.0388L89.5498 9.84744L91.2671 9.84574L91.2705 13.8046C91.2705 14.4648 91.4198 14.9569 91.7185 15.281C92.0171 15.6068 92.4397 15.768 92.9895 15.768C93.6037 15.768 94.0908 15.5779 94.4522 15.1961C94.8136 14.816 94.9952 14.2679 94.9935 13.5535L94.9901 9.84235H96.7108Z" fill="black"/>
<path d="M99.492 17.0423C98.9236 16.8879 98.4705 16.6911 98.1311 16.4518L98.7895 15.1452C99.1204 15.3641 99.5158 15.5406 99.9791 15.6729C100.442 15.8053 100.897 15.8715 101.347 15.8715C102.373 15.8715 102.886 15.6 102.886 15.0586C102.886 14.8024 102.755 14.6242 102.494 14.5224C102.233 14.4223 101.813 14.3256 101.236 14.2339C100.632 14.1423 100.139 14.0371 99.7585 13.9183C99.3783 13.7995 99.0474 13.5908 98.7674 13.2938C98.4875 12.9969 98.3483 12.5811 98.3483 12.05C98.3483 11.3543 98.6385 10.796 99.2205 10.3785C99.8026 9.9611 100.588 9.75238 101.578 9.75238C102.082 9.75238 102.586 9.80838 103.09 9.92377C103.593 10.0375 104.006 10.1919 104.327 10.3836L103.668 11.6903C103.045 11.3237 102.343 11.1422 101.566 11.1422C101.062 11.1422 100.678 11.2185 100.419 11.3695C100.157 11.5206 100.027 11.7208 100.027 11.9669C100.027 12.2418 100.166 12.4369 100.446 12.5506C100.726 12.6643 101.158 12.7729 101.746 12.873C102.333 12.9646 102.813 13.0699 103.19 13.1886C103.565 13.3074 103.889 13.5094 104.159 13.7927C104.428 14.0761 104.564 14.48 104.564 15.0026C104.564 15.6899 104.267 16.2397 103.672 16.652C103.076 17.0644 102.265 17.2714 101.24 17.2714C100.643 17.2748 100.061 17.1968 99.492 17.0423Z" fill="black"/>
<path d="M112.918 14.0507L107.159 14.0541C107.261 14.5954 107.524 15.023 107.949 15.3386C108.375 15.6543 108.905 15.8121 109.538 15.8121C110.344 15.8121 111.009 15.5456 111.53 15.0128L112.451 16.07C112.122 16.4637 111.705 16.7623 111.201 16.9643C110.697 17.1662 110.128 17.268 109.497 17.268C108.691 17.268 107.98 17.1085 107.366 16.7878C106.751 16.4671 106.276 16.0208 105.942 15.4489C105.608 14.8771 105.44 14.2288 105.44 13.5043C105.44 12.7899 105.601 12.145 105.927 11.5732C106.251 10.9996 106.702 10.5533 107.279 10.2326C107.856 9.91188 108.506 9.75067 109.231 9.75067C109.945 9.75067 110.585 9.90679 111.148 10.2241C111.712 10.5397 112.153 10.9843 112.468 11.5562C112.784 12.1281 112.944 12.7899 112.944 13.5416C112.945 13.6604 112.937 13.8301 112.918 14.0507ZM107.837 11.6139C107.457 11.9397 107.227 12.3724 107.143 12.9137L111.308 12.912C111.235 12.3809 111.009 11.9499 110.634 11.6207C110.257 11.2915 109.791 11.1269 109.232 11.1269C108.683 11.1252 108.218 11.2881 107.837 11.6139Z" fill="black"/>
<path d="M126.741 12.7805C127.062 13.1878 127.223 13.7036 127.223 14.3264C127.223 15.1613 126.911 15.8027 126.283 16.2507C125.655 16.7004 124.742 16.9261 123.541 16.9261L118.951 16.9295L118.944 7.30796L123.259 7.30457C124.359 7.30457 125.209 7.52347 125.809 7.96297C126.41 8.40247 126.711 9.01166 126.711 9.79055C126.711 10.2945 126.593 10.7306 126.361 11.0972C126.128 11.4637 125.815 11.7437 125.421 11.9372C125.979 12.0916 126.419 12.3733 126.741 12.7805ZM120.318 8.42114L120.32 11.4993L123.139 11.4977C123.844 11.4977 124.387 11.367 124.768 11.1057C125.148 10.8443 125.338 10.4608 125.338 9.95685C125.338 9.45286 125.146 9.07106 124.766 8.80973C124.386 8.54841 123.843 8.41774 123.137 8.41944L120.318 8.42114ZM125.244 15.4277C125.638 15.1715 125.835 14.7676 125.835 14.2178C125.835 13.1454 125.051 12.6108 123.483 12.6108L120.322 12.6125L120.323 15.8146L123.485 15.8129C124.264 15.8129 124.851 15.6839 125.244 15.4277Z" fill="black"/>
<path d="M130.33 16.5239C129.753 16.2032 129.302 15.762 128.976 15.1986C128.65 14.6352 128.487 13.9955 128.487 13.2811C128.487 12.5667 128.648 11.927 128.974 11.3636C129.298 10.8002 129.75 10.3607 130.327 10.0434C130.904 9.72775 131.554 9.56824 132.278 9.56824C133.003 9.56824 133.651 9.72605 134.224 10.0417C134.796 10.3573 135.246 10.7968 135.572 11.3602C135.898 11.9236 136.061 12.5633 136.061 13.2777C136.061 13.9921 135.899 14.6318 135.574 15.1952C135.248 15.7586 134.8 16.2015 134.228 16.5222C133.656 16.8429 133.008 17.0041 132.283 17.0041C131.559 17.0041 130.907 16.8446 130.33 16.5239ZM133.539 15.5261C133.911 15.3106 134.201 15.0086 134.411 14.6183C134.622 14.228 134.727 13.7817 134.727 13.2777C134.727 12.7737 134.62 12.3274 134.409 11.9371C134.199 11.5485 133.907 11.2482 133.536 11.0378C133.164 10.8273 132.745 10.7221 132.278 10.7221C131.811 10.7221 131.392 10.8274 131.021 11.0395C130.649 11.2499 130.357 11.5502 130.142 11.9405C129.926 12.3308 129.819 12.7771 129.819 13.2811C129.819 13.7851 129.928 14.2314 130.143 14.6217C130.359 15.0103 130.652 15.3123 131.024 15.5278C131.396 15.7433 131.815 15.8502 132.281 15.8502C132.748 15.8485 133.167 15.7416 133.539 15.5261Z" fill="black"/>
<path d="M142.288 16.9142L140.184 14.1262L138.056 16.9176L136.585 16.9193L139.454 13.1929L136.717 9.63442L138.188 9.63273L140.196 12.2562L142.188 9.62933H143.632L140.885 13.1912L143.787 16.9142H142.288Z" fill="black"/>
</svg>
