<svg xmlns="http://www.w3.org/2000/svg" xmlns:xlink="http://www.w3.org/1999/xlink" width="500" zoomAndPan="magnify" viewBox="0 0 375 374.999991" height="500" preserveAspectRatio="xMidYMid meet" version="1.0"><defs><g/><clipPath id="id1"><path d="M 0 179.878906 L 375 179.878906 L 375 231.804688 L 0 231.804688 Z M 0 179.878906 " clip-rule="nonzero"/></clipPath></defs><rect x="-37.5" width="450" fill="#ffffff" y="-37.499999" height="449.999989" fill-opacity="1"/><rect x="-37.5" width="450" fill="#ffffff" y="-37.499999" height="449.999989" fill-opacity="1"/><rect x="-37.5" width="450" fill="#ffffff" y="-37.499999" height="449.999989" fill-opacity="1"/><g fill="#000000" fill-opacity="1"><g transform="translate(15.550703, 268.275883)"><g><path d="M 4.609375 0 L 4.609375 -2.3125 L 9.234375 -3.921875 C 14.460938 -5.617188 17.078125 -10.003906 17.078125 -17.078125 L 17.078125 -135.234375 C 17.078125 -138.316406 16.726562 -140.78125 16.03125 -142.625 C 15.34375 -144.46875 13.535156 -146.003906 10.609375 -147.234375 L 4.609375 -150.015625 L 4.609375 -152.3125 L 49.15625 -152.3125 L 91.84375 -40.625 L 132 -152.3125 L 177.46875 -152.3125 L 177.46875 -150.015625 L 173.78125 -148.625 C 170.851562 -147.539062 168.847656 -146.035156 167.765625 -144.109375 C 166.691406 -142.191406 166.15625 -139.695312 166.15625 -136.625 L 166.15625 -15.921875 C 166.15625 -12.847656 166.539062 -10.460938 167.3125 -8.765625 C 168.082031 -7.078125 169.929688 -5.617188 172.859375 -4.390625 L 177.46875 -2.3125 L 177.46875 0 L 120 0 L 120 -2.3125 L 124.859375 -4.390625 C 127.773438 -5.617188 129.617188 -7.078125 130.390625 -8.765625 C 131.160156 -10.460938 131.546875 -12.847656 131.546875 -15.921875 L 131.546875 -67.84375 L 132 -133.859375 L 83.78125 0 L 72.234375 0 L 21.921875 -132.234375 L 22.609375 -74.765625 L 22.609375 -16.609375 C 22.609375 -13.234375 23.109375 -10.503906 24.109375 -8.421875 C 25.109375 -6.347656 27.070312 -4.847656 30 -3.921875 L 35.078125 -2.3125 L 35.078125 0 Z M 4.609375 0 "/></g></g></g><g fill="#000000" fill-opacity="1"><g transform="translate(208.028193, 268.275883)"><g><path d="M 84 4.15625 C 68.3125 4.15625 54.503906 0.882812 42.578125 -5.65625 C 30.648438 -12.195312 21.335938 -21.503906 14.640625 -33.578125 C 7.953125 -45.648438 4.609375 -59.921875 4.609375 -76.390625 C 4.609375 -92.390625 7.914062 -106.390625 14.53125 -118.390625 C 21.15625 -130.390625 30.734375 -139.734375 43.265625 -146.421875 C 55.804688 -153.117188 71 -156.46875 88.84375 -156.46875 C 97 -156.46875 104.578125 -155.546875 111.578125 -153.703125 C 118.578125 -151.859375 125.234375 -149.164062 131.546875 -145.625 L 132.46875 -113.3125 L 130.15625 -113.3125 L 117.234375 -137.3125 C 115.234375 -141.15625 113.382812 -143.921875 111.6875 -145.609375 C 110 -147.304688 107.847656 -148.617188 105.234375 -149.546875 C 102.773438 -150.316406 100.503906 -150.894531 98.421875 -151.28125 C 96.347656 -151.664062 93.617188 -151.859375 90.234375 -151.859375 C 80.691406 -151.859375 72.265625 -149.316406 64.953125 -144.234375 C 57.648438 -139.160156 52 -131.082031 48 -120 C 44 -108.925781 42 -94.390625 42 -76.390625 C 42 -58.546875 43.882812 -44.003906 47.65625 -32.765625 C 51.425781 -21.535156 56.769531 -13.34375 63.6875 -8.1875 C 70.613281 -3.039062 78.617188 -0.46875 87.703125 -0.46875 C 89.085938 -0.46875 90.429688 -0.582031 91.734375 -0.8125 C 93.046875 -1.039062 94.316406 -1.304688 95.546875 -1.609375 C 98.460938 -2.078125 100.382812 -3.3125 101.3125 -5.3125 C 102.238281 -7.3125 102.703125 -9.695312 102.703125 -12.46875 L 102.703125 -58.15625 C 102.703125 -64.15625 99.625 -67.847656 93.46875 -69.234375 L 82.84375 -72 L 82.84375 -74.3125 L 147.9375 -74.3125 L 147.9375 -72 L 144.703125 -71.078125 C 138.859375 -69.234375 135.9375 -65.390625 135.9375 -59.546875 L 135.9375 -9.46875 C 127.925781 -5 119.804688 -1.613281 111.578125 0.6875 C 103.347656 3 94.15625 4.15625 84 4.15625 Z M 84 4.15625 "/></g></g></g><g clip-path="url(#id1)"><path fill="#ffffff" d="M -1.851562 179.878906 L 376.605469 179.878906 L 376.605469 231.804688 L -1.851562 231.804688 L -1.851562 179.878906 " fill-opacity="1" fill-rule="nonzero"/></g><g fill="#000000" fill-opacity="1"><g transform="translate(15.83055, 215.084079)"><g><path d="M 17.40625 -15.890625 L 17.40625 0 L 15.59375 0 L 15.59375 -13.15625 L 9.71875 -5.59375 L 3.75 -13.15625 L 3.75 0 L 1.9375 0 L 1.9375 -15.890625 L 4.03125 -15.890625 L 9.71875 -8.359375 L 15.3125 -15.890625 Z M 17.40625 -15.890625 "/></g></g></g><g fill="#000000" fill-opacity="1"><g transform="translate(51.255693, 215.084079)"><g><path d="M 3.75 0 L 1.9375 0 L 1.9375 -15.890625 L 3.75 -15.890625 Z M 3.75 0 "/></g></g></g><g fill="#000000" fill-opacity="1"><g transform="translate(73.024809, 215.084079)"><g><path d="M 3.078125 -13.703125 C 3.742188 -14.441406 4.554688 -15.019531 5.515625 -15.4375 C 6.472656 -15.863281 7.460938 -16.078125 8.484375 -16.078125 C 9.515625 -16.078125 10.40625 -15.960938 11.15625 -15.734375 C 11.90625 -15.515625 12.585938 -15.210938 13.203125 -14.828125 C 14.460938 -14.015625 15.390625 -12.925781 15.984375 -11.5625 L 14.015625 -11.5625 C 13.535156 -12.425781 12.867188 -13.101562 12.015625 -13.59375 C 11.160156 -14.082031 10.1875 -14.328125 9.09375 -14.328125 C 8.007812 -14.328125 7.082031 -14.160156 6.3125 -13.828125 C 5.539062 -13.503906 4.894531 -13.054688 4.375 -12.484375 C 3.28125 -11.296875 2.734375 -9.78125 2.734375 -7.9375 C 2.734375 -6.082031 3.269531 -4.570312 4.34375 -3.40625 C 5.476562 -2.175781 6.984375 -1.5625 8.859375 -1.5625 C 10.359375 -1.5625 11.65625 -2.023438 12.75 -2.953125 C 13.894531 -3.929688 14.46875 -5.21875 14.46875 -6.8125 L 8.65625 -6.8125 L 8.65625 -8.453125 L 16.125 -8.453125 L 16.125 0 L 14.46875 0 L 14.46875 -2.8125 C 13.5625 -1.4375 12.300781 -0.515625 10.6875 -0.046875 C 10.09375 0.109375 9.3125 0.1875 8.34375 0.1875 C 7.375 0.1875 6.410156 -0.0195312 5.453125 -0.4375 C 4.492188 -0.863281 3.675781 -1.445312 3 -2.1875 C 1.625 -3.6875 0.9375 -5.601562 0.9375 -7.9375 C 0.9375 -10.25 1.648438 -12.171875 3.078125 -13.703125 Z M 3.078125 -13.703125 "/></g></g></g><g fill="#000000" fill-opacity="1"><g transform="translate(106.457949, 215.084079)"><g><path d="M 15.265625 -15.890625 L 15.265625 -6.84375 C 15.265625 -4.726562 14.632812 -3.023438 13.375 -1.734375 C 12.125 -0.453125 10.5 0.1875 8.5 0.1875 C 6.507812 0.1875 4.882812 -0.453125 3.625 -1.734375 C 2.375 -3.023438 1.75 -4.726562 1.75 -6.84375 L 1.75 -15.890625 L 3.546875 -15.890625 L 3.546875 -6.796875 C 3.546875 -5.078125 4.0625 -3.738281 5.09375 -2.78125 C 5.96875 -1.96875 7.101562 -1.5625 8.5 -1.5625 C 9.882812 -1.5625 11.023438 -1.96875 11.921875 -2.78125 C 12.953125 -3.726562 13.46875 -5.066406 13.46875 -6.796875 L 13.46875 -15.890625 Z M 15.265625 -15.890625 "/></g></g></g><g fill="#000000" fill-opacity="1"><g transform="translate(139.555089, 215.084079)"><g><path d="M 3.75 -14.15625 L 3.75 -8.828125 L 12.578125 -8.828125 L 12.578125 -7.078125 L 3.75 -7.078125 L 3.75 -1.734375 L 13.625 -1.734375 L 13.625 0 L 1.9375 0 L 1.9375 -15.890625 L 13.625 -15.890625 L 13.625 -14.15625 Z M 3.75 -14.15625 "/></g></g></g><g fill="#000000" fill-opacity="1"><g transform="translate(170.228229, 215.084079)"><g><path d="M 3.75 -15.890625 L 3.75 -1.734375 L 12.40625 -1.734375 L 12.40625 0 L 1.9375 0 L 1.9375 -15.890625 Z M 3.75 -15.890625 "/></g></g></g><g fill="#000000" fill-opacity="1"><g transform="translate(199.101351, 215.084079)"><g/></g></g><g fill="#000000" fill-opacity="1"><g transform="translate(220.294457, 215.084079)"><g><path d="M 3.078125 -13.703125 C 3.742188 -14.441406 4.554688 -15.019531 5.515625 -15.4375 C 6.472656 -15.863281 7.460938 -16.078125 8.484375 -16.078125 C 9.515625 -16.078125 10.40625 -15.960938 11.15625 -15.734375 C 11.90625 -15.515625 12.585938 -15.210938 13.203125 -14.828125 C 14.460938 -14.015625 15.390625 -12.925781 15.984375 -11.5625 L 14.015625 -11.5625 C 13.535156 -12.425781 12.867188 -13.101562 12.015625 -13.59375 C 11.160156 -14.082031 10.1875 -14.328125 9.09375 -14.328125 C 8.007812 -14.328125 7.082031 -14.160156 6.3125 -13.828125 C 5.539062 -13.503906 4.894531 -13.054688 4.375 -12.484375 C 3.28125 -11.296875 2.734375 -9.78125 2.734375 -7.9375 C 2.734375 -6.082031 3.269531 -4.570312 4.34375 -3.40625 C 5.476562 -2.175781 6.984375 -1.5625 8.859375 -1.5625 C 10.359375 -1.5625 11.65625 -2.023438 12.75 -2.953125 C 13.894531 -3.929688 14.46875 -5.21875 14.46875 -6.8125 L 8.65625 -6.8125 L 8.65625 -8.453125 L 16.125 -8.453125 L 16.125 0 L 14.46875 0 L 14.46875 -2.8125 C 13.5625 -1.4375 12.300781 -0.515625 10.6875 -0.046875 C 10.09375 0.109375 9.3125 0.1875 8.34375 0.1875 C 7.375 0.1875 6.410156 -0.0195312 5.453125 -0.4375 C 4.492188 -0.863281 3.675781 -1.445312 3 -2.1875 C 1.625 -3.6875 0.9375 -5.601562 0.9375 -7.9375 C 0.9375 -10.25 1.648438 -12.171875 3.078125 -13.703125 Z M 3.078125 -13.703125 "/></g></g></g><g fill="#000000" fill-opacity="1"><g transform="translate(253.727591, 215.084079)"><g><path d="M 15.265625 -15.890625 L 15.265625 -6.84375 C 15.265625 -4.726562 14.632812 -3.023438 13.375 -1.734375 C 12.125 -0.453125 10.5 0.1875 8.5 0.1875 C 6.507812 0.1875 4.882812 -0.453125 3.625 -1.734375 C 2.375 -3.023438 1.75 -4.726562 1.75 -6.84375 L 1.75 -15.890625 L 3.546875 -15.890625 L 3.546875 -6.796875 C 3.546875 -5.078125 4.0625 -3.738281 5.09375 -2.78125 C 5.96875 -1.96875 7.101562 -1.5625 8.5 -1.5625 C 9.882812 -1.5625 11.023438 -1.96875 11.921875 -2.78125 C 12.953125 -3.726562 13.46875 -5.066406 13.46875 -6.796875 L 13.46875 -15.890625 Z M 15.265625 -15.890625 "/></g></g></g><g fill="#000000" fill-opacity="1"><g transform="translate(286.824727, 215.084079)"><g><path d="M 3.75 -14.15625 L 3.75 -8.828125 L 12.578125 -8.828125 L 12.578125 -7.078125 L 3.75 -7.078125 L 3.75 -1.734375 L 13.625 -1.734375 L 13.625 0 L 1.9375 0 L 1.9375 -15.890625 L 13.625 -15.890625 L 13.625 -14.15625 Z M 3.75 -14.15625 "/></g></g></g><g fill="#000000" fill-opacity="1"><g transform="translate(317.497866, 215.084079)"><g><path d="M 3.75 -15.890625 L 3.75 -1.734375 L 12.40625 -1.734375 L 12.40625 0 L 1.9375 0 L 1.9375 -15.890625 Z M 3.75 -15.890625 "/></g></g></g><g fill="#000000" fill-opacity="1"><g transform="translate(346.370988, 215.084079)"><g><path d="M 3.75 -15.890625 L 3.75 -1.734375 L 12.40625 -1.734375 L 12.40625 0 L 1.9375 0 L 1.9375 -15.890625 Z M 3.75 -15.890625 "/></g></g></g></svg>